<?xml version="1.0" encoding="UTF-8"?>
<svg width="400px" height="400px" viewBox="0 0 400 400" version="1.1" xmlns="http://www.w3.org/2000/svg" xmlns:xlink="http://www.w3.org/1999/xlink">
    <g id="Colors" stroke="none" stroke-width="1" fill="none" fill-rule="evenodd" transform="translate(-470.000000, -602.000000)">
        <g id="Group" transform="translate(470.000000, 602.000000)">
            <rect id="Rectangle" fill="#DEE2E6" x="0" y="0" width="400" height="400" rx="4"></rect>
            <path d="M115.68,208 C115.466666,208 115.296001,207.930667 115.168,207.792 C115.039999,207.653333 114.976,207.477334 114.976,207.264 L114.976,186.368 C114.976,186.133332 115.039999,185.946667 115.168,185.808 C115.296001,185.669333 115.466666,185.6 115.68,185.6 L123.776,185.6 C126.186679,185.6 128.079993,186.181328 129.456,187.344 C130.832007,188.506672 131.52,190.197322 131.52,192.416 C131.52,194.634678 130.832007,196.319994 129.456,197.472 C128.079993,198.624006 126.186679,199.2 123.776,199.2 L118.016,199.2 L118.016,207.264 C118.016,207.477334 117.946667,207.653333 117.808,207.792 C117.669333,207.930667 117.493334,208 117.28,208 L115.68,208 Z M123.616,196.608 C126.837349,196.608 128.448,195.210681 128.448,192.416 C128.448,191.05066 128.048004,190.005337 127.248,189.28 C126.447996,188.554663 125.237341,188.192 123.616,188.192 L118.016,188.192 L118.016,196.608 L123.616,196.608 Z M135.84,208 C135.626666,208 135.450667,207.930667 135.312,207.792 C135.173333,207.653333 135.104,207.477334 135.104,207.264 L135.104,186.016 C135.104,185.781332 135.173333,185.600001 135.312,185.472 C135.450667,185.343999 135.626666,185.28 135.84,185.28 L137.248,185.28 C137.461334,185.28 137.637333,185.349333 137.776,185.488 C137.914667,185.626667 137.984,185.802666 137.984,186.016 L137.984,207.264 C137.984,207.477334 137.914667,207.653333 137.776,207.792 C137.637333,207.930667 137.461334,208 137.248,208 L135.84,208 Z M147.392,208.32 C146.346661,208.32 145.381338,208.106669 144.496,207.68 C143.610662,207.253331 142.906669,206.672004 142.384,205.936 C141.861331,205.199996 141.6,204.384004 141.6,203.488 C141.6,202.079993 142.175994,200.928004 143.328,200.032 C144.480006,199.135996 146.04799,198.538668 148.032,198.24 L152.832,197.568 L152.832,196.64 C152.832,194.442656 151.562679,193.344 149.024,193.344 C148.042662,193.344 147.253336,193.541331 146.656,193.936 C146.058664,194.330669 145.621335,194.794664 145.344,195.328 C145.258666,195.541334 145.168,195.685333 145.072,195.76 C144.976,195.834667 144.842668,195.872 144.672,195.872 L143.424,195.872 C143.231999,195.872 143.066667,195.802667 142.928,195.664 C142.789333,195.525333 142.72,195.360001 142.72,195.168 C142.72,194.677331 142.949331,194.10667 143.408,193.456 C143.866669,192.80533 144.575995,192.240002 145.536,191.76 C146.496005,191.279998 147.669326,191.04 149.056,191.04 C151.445345,191.04 153.157328,191.594661 154.192,192.704 C155.226672,193.813339 155.744,195.199992 155.744,196.864 L155.744,207.264 C155.744,207.477334 155.674667,207.653333 155.536,207.792 C155.397333,207.930667 155.221334,208 155.008,208 L153.6,208 C153.386666,208 153.216001,207.930667 153.088,207.792 C152.959999,207.653333 152.896,207.477334 152.896,207.264 L152.896,205.856 C152.426664,206.560004 151.744004,207.146664 150.848,207.616 C149.951996,208.085336 148.800007,208.32 147.392,208.32 Z M148.032,205.984 C149.440007,205.984 150.591996,205.525338 151.488,204.608 C152.384004,203.690662 152.832,202.357342 152.832,200.608 L152.832,199.712 L149.088,200.256 C147.551992,200.469334 146.389337,200.831997 145.6,201.344 C144.810663,201.856003 144.416,202.495996 144.416,203.264 C144.416,204.138671 144.77333,204.810664 145.488,205.28 C146.20267,205.749336 147.050662,205.984 148.032,205.984 Z M167.04,208.32 C164.757322,208.32 162.976006,207.674673 161.696,206.384 C160.415994,205.093327 159.744,203.285345 159.68,200.96 L159.648,199.68 L159.68,198.4 C159.744,196.074655 160.415994,194.266673 161.696,192.976 C162.976006,191.685327 164.757322,191.04 167.04,191.04 C168.576008,191.04 169.871995,191.311997 170.928,191.856 C171.984005,192.400003 172.773331,193.077329 173.296,193.888 C173.818669,194.698671 174.101333,195.509329 174.144,196.32 C174.165333,196.512001 174.096001,196.682666 173.936,196.832 C173.775999,196.981334 173.600001,197.056 173.408,197.056 L172,197.056 C171.786666,197.056 171.626667,197.008 171.52,196.912 C171.413333,196.816 171.306667,196.640001 171.2,196.384 C170.815998,195.338661 170.288003,194.597336 169.616,194.16 C168.943997,193.722664 168.096005,193.504 167.072,193.504 C165.727993,193.504 164.661337,193.919996 163.872,194.752 C163.082663,195.584004 162.656,196.853325 162.592,198.56 L162.56,199.68 L162.592,200.8 C162.656,202.506675 163.082663,203.775996 163.872,204.608 C164.661337,205.440004 165.727993,205.856 167.072,205.856 C168.117339,205.856 168.970663,205.637336 169.632,205.2 C170.293337,204.762664 170.815998,204.021339 171.2,202.976 C171.306667,202.719999 171.413333,202.544 171.52,202.448 C171.626667,202.352 171.786666,202.304 172,202.304 L173.408,202.304 C173.600001,202.304 173.775999,202.378666 173.936,202.528 C174.096001,202.677334 174.165333,202.847999 174.144,203.04 C174.101333,203.829337 173.818669,204.629329 173.296,205.44 C172.773331,206.250671 171.984005,206.933331 170.928,207.488 C169.871995,208.042669 168.576008,208.32 167.04,208.32 Z M184.576,208.32 C182.399989,208.32 180.66134,207.642673 179.36,206.288 C178.05866,204.933327 177.344001,203.082678 177.216,200.736 L177.184,199.648 L177.216,198.592 C177.344001,196.287988 178.05866,194.45334 179.36,193.088 C180.66134,191.72266 182.399989,191.04 184.576,191.04 C186.922678,191.04 188.741327,191.786659 190.032,193.28 C191.322673,194.773341 191.968,196.799987 191.968,199.36 L191.968,199.936 C191.968,200.149334 191.898667,200.325333 191.76,200.464 C191.621333,200.602667 191.445334,200.672 191.232,200.672 L180.128,200.672 L180.128,200.96 C180.192,202.346674 180.618663,203.530662 181.408,204.512 C182.197337,205.493338 183.24266,205.984 184.544,205.984 C185.546672,205.984 186.362664,205.786669 186.992,205.392 C187.621336,204.997331 188.095998,204.586669 188.416,204.16 C188.608001,203.903999 188.757333,203.749334 188.864,203.696 C188.970667,203.642666 189.151999,203.616 189.408,203.616 L190.816,203.616 C191.008001,203.616 191.173333,203.669333 191.312,203.776 C191.450667,203.882667 191.52,204.021332 191.52,204.192 C191.52,204.661336 191.232003,205.226663 190.656,205.888 C190.079997,206.549337 189.264005,207.119998 188.208,207.6 C187.151995,208.080002 185.94134,208.32 184.576,208.32 Z M189.056,198.496 L189.056,198.4 C189.056,196.906659 188.650671,195.690671 187.84,194.752 C187.029329,193.813329 185.94134,193.344 184.576,193.344 C183.189326,193.344 182.101337,193.813329 181.312,194.752 C180.522663,195.690671 180.128,196.906659 180.128,198.4 L180.128,198.496 L189.056,198.496 Z M196.64,208 C196.426666,208 196.250667,207.930667 196.112,207.792 C195.973333,207.653333 195.904,207.477334 195.904,207.264 L195.904,186.016 C195.904,185.781332 195.973333,185.600001 196.112,185.472 C196.250667,185.343999 196.426666,185.28 196.64,185.28 L198.112,185.28 C198.346668,185.28 198.527999,185.343999 198.656,185.472 C198.784001,185.600001 198.848,185.781332 198.848,186.016 L198.848,193.472 C199.46667,192.682663 200.197329,192.080002 201.04,191.664 C201.882671,191.247998 202.92266,191.04 204.16,191.04 C206.20801,191.04 207.802661,191.695993 208.944,193.008 C210.085339,194.320007 210.656,196.053323 210.656,198.208 L210.656,207.264 C210.656,207.477334 210.586667,207.653333 210.448,207.792 C210.309333,207.930667 210.133334,208 209.92,208 L208.416,208 C208.202666,208 208.026667,207.930667 207.888,207.792 C207.749333,207.653333 207.68,207.477334 207.68,207.264 L207.68,198.4 C207.68,196.863992 207.30667,195.669338 206.56,194.816 C205.81333,193.962662 204.736007,193.536 203.328,193.536 C201.96266,193.536 200.874671,193.967996 200.064,194.832 C199.253329,195.696004 198.848,196.885326 198.848,198.4 L198.848,207.264 C198.848,207.477334 198.778667,207.653333 198.64,207.792 C198.501333,207.930667 198.325334,208 198.112,208 L196.64,208 Z M222.048,208.32 C219.701322,208.32 217.89334,207.658673 216.624,206.336 C215.35466,205.013327 214.677334,203.253344 214.592,201.056 L214.56,199.68 L214.592,198.304 C214.677334,196.106656 215.365327,194.346673 216.656,193.024 C217.946673,191.701327 219.743988,191.04 222.048,191.04 C224.352012,191.04 226.149327,191.701327 227.44,193.024 C228.730673,194.346673 229.418666,196.106656 229.504,198.304 C229.546667,198.773336 229.568,199.231998 229.568,199.68 C229.568,200.128002 229.546667,200.586664 229.504,201.056 C229.418666,203.253344 228.74134,205.013327 227.472,206.336 C226.20266,207.658673 224.394678,208.32 222.048,208.32 Z M222.048,205.92 C223.41334,205.92 224.495996,205.488004 225.296,204.624 C226.096004,203.759996 226.528,202.517341 226.592,200.896 C226.613333,200.682666 226.624,200.277336 226.624,199.68 C226.624,199.082664 226.613333,198.677334 226.592,198.464 C226.528,196.842659 226.096004,195.600004 225.296,194.736 C224.495996,193.871996 223.41334,193.44 222.048,193.44 C220.68266,193.44 219.600004,193.871996 218.8,194.736 C217.999996,195.600004 217.568,196.842659 217.504,198.464 L217.472,199.68 L217.504,200.896 C217.568,202.517341 217.999996,203.759996 218.8,204.624 C219.600004,205.488004 220.68266,205.92 222.048,205.92 Z M234.368,208 C234.154666,208 233.978667,207.930667 233.84,207.792 C233.701333,207.653333 233.632,207.477334 233.632,207.264 L233.632,186.016 C233.632,185.781332 233.701333,185.600001 233.84,185.472 C233.978667,185.343999 234.154666,185.28 234.368,185.28 L235.776,185.28 C235.989334,185.28 236.165333,185.349333 236.304,185.488 C236.442667,185.626667 236.512,185.802666 236.512,186.016 L236.512,207.264 C236.512,207.477334 236.442667,207.653333 236.304,207.792 C236.165333,207.930667 235.989334,208 235.776,208 L234.368,208 Z M247.392,208.32 C245.151989,208.32 243.472006,207.594674 242.352,206.144 C241.231994,204.693326 240.629334,202.858678 240.544,200.64 L240.512,199.68 L240.544,198.72 C240.629334,196.522656 241.237328,194.693341 242.368,193.232 C243.498672,191.770659 245.173322,191.04 247.392,191.04 C249.610678,191.04 251.33866,191.829325 252.576,193.408 L252.576,186.016 C252.576,185.802666 252.645333,185.626667 252.784,185.488 C252.922667,185.349333 253.098666,185.28 253.312,185.28 L254.752,185.28 C254.965334,185.28 255.141333,185.349333 255.28,185.488 C255.418667,185.626667 255.488,185.802666 255.488,186.016 L255.488,207.264 C255.488,207.477334 255.418667,207.653333 255.28,207.792 C255.141333,207.930667 254.965334,208 254.752,208 L253.376,208 C253.162666,208 252.992001,207.930667 252.864,207.792 C252.735999,207.653333 252.672,207.477334 252.672,207.264 L252.672,205.888 C251.455994,207.509341 249.696012,208.32 247.392,208.32 Z M248,205.824 C249.493341,205.824 250.61333,205.328005 251.36,204.336 C252.10667,203.343995 252.512,202.16534 252.576,200.8 C252.597333,200.565332 252.608,200.160003 252.608,199.584 C252.608,198.986664 252.597333,198.570668 252.576,198.336 C252.533333,197.03466 252.122671,195.909338 251.344,194.96 C250.565329,194.010662 249.450674,193.536 248,193.536 C246.463992,193.536 245.344004,194.015995 244.64,194.976 C243.935996,195.936005 243.552,197.194659 243.488,198.752 L243.456,199.68 C243.456,203.77602 244.970652,205.824 248,205.824 Z M266.912,208.32 C264.735989,208.32 262.99734,207.642673 261.696,206.288 C260.39466,204.933327 259.680001,203.082678 259.552,200.736 L259.52,199.648 L259.552,198.592 C259.680001,196.287988 260.39466,194.45334 261.696,193.088 C262.99734,191.72266 264.735989,191.04 266.912,191.04 C269.258678,191.04 271.077327,191.786659 272.368,193.28 C273.658673,194.773341 274.304,196.799987 274.304,199.36 L274.304,199.936 C274.304,200.149334 274.234667,200.325333 274.096,200.464 C273.957333,200.602667 273.781334,200.672 273.568,200.672 L262.464,200.672 L262.464,200.96 C262.528,202.346674 262.954663,203.530662 263.744,204.512 C264.533337,205.493338 265.57866,205.984 266.88,205.984 C267.882672,205.984 268.698664,205.786669 269.328,205.392 C269.957336,204.997331 270.431998,204.586669 270.752,204.16 C270.944001,203.903999 271.093333,203.749334 271.2,203.696 C271.306667,203.642666 271.487999,203.616 271.744,203.616 L273.152,203.616 C273.344001,203.616 273.509333,203.669333 273.648,203.776 C273.786667,203.882667 273.856,204.021332 273.856,204.192 C273.856,204.661336 273.568003,205.226663 272.992,205.888 C272.415997,206.549337 271.600005,207.119998 270.544,207.6 C269.487995,208.080002 268.27734,208.32 266.912,208.32 Z M271.392,198.496 L271.392,198.4 C271.392,196.906659 270.986671,195.690671 270.176,194.752 C269.365329,193.813329 268.27734,193.344 266.912,193.344 C265.525326,193.344 264.437337,193.813329 263.648,194.752 C262.858663,195.690671 262.464,196.906659 262.464,198.4 L262.464,198.496 L271.392,198.496 Z M278.944,208 C278.730666,208 278.554667,207.930667 278.416,207.792 C278.277333,207.653333 278.208,207.477334 278.208,207.264 L278.208,192.128 C278.208,191.914666 278.277333,191.733334 278.416,191.584 C278.554667,191.434666 278.730666,191.36 278.944,191.36 L280.288,191.36 C280.522668,191.36 280.709333,191.429333 280.848,191.568 C280.986667,191.706667 281.056,191.893332 281.056,192.128 L281.056,193.536 C281.930671,192.085326 283.413323,191.36 285.504,191.36 L286.752,191.36 C286.986668,191.36 287.167999,191.423999 287.296,191.552 C287.424001,191.680001 287.488,191.861332 287.488,192.096 L287.488,193.28 C287.488,193.493334 287.424001,193.669333 287.296,193.808 C287.167999,193.946667 286.986668,194.016 286.752,194.016 L284.928,194.016 C283.754661,194.016 282.832003,194.35733 282.16,195.04 C281.487997,195.72267 281.152,196.650661 281.152,197.824 L281.152,207.264 C281.152,207.477334 281.077334,207.653333 280.928,207.792 C280.778666,207.930667 280.597334,208 280.384,208 L278.944,208 Z" id="Placeholder" fill="#ADB5BD"></path>
        </g>
    </g>
</svg>