<?xml version="1.0" ?><svg id="Layer_1" style="enable-background:new 0 0 74 74;" version="1.1" viewBox="0 0 74 74" xml:space="preserve" xmlns="http://www.w3.org/2000/svg" xmlns:xlink="http://www.w3.org/1999/xlink"><style type="text/css">
	.st0{fill:#2B3033;}
</style><g><path class="st0" d="M44.7,20.1H39v-3.8c0-1.1-0.9-2-2-2s-2,0.9-2,2v4c-3.4,0.7-6,3.7-6,7.3c0,4.1,3.4,7.5,7.5,7.5h1   c1.9,0,3.5,1.6,3.5,3.5S39.4,42,37.5,42h-8.2c-1.1,0-2,0.9-2,2s0.9,2,2,2H35v3.8c0,1.1,0.9,2,2,2s2-0.9,2-2v-4c3.4-0.7,6-3.7,6-7.3   c0-4.1-3.4-7.5-7.5-7.5h-1c-1.9,0-3.5-1.6-3.5-3.5s1.6-3.5,3.5-3.5h8.2c1.1,0,2-0.9,2-2S45.8,20.1,44.7,20.1z"/><path class="st0" d="M65.3,15.7c-5.9,0-10.7-4.8-10.7-10.7c0-1.1-0.9-2-2-2H21.4c-1.1,0-2,0.9-2,2c0,5.9-4.8,10.7-10.7,10.7   c-1.1,0-2,0.9-2,2v9.9c0,19.3,11.6,36.3,29.6,43.3C36.5,71,36.8,71,37,71s0.5,0,0.7-0.1c18-7,29.6-24,29.6-43.3v-9.9   C67.3,16.6,66.4,15.7,65.3,15.7z M63.3,27.6C63.3,44.9,53,60.3,37,66.8c-16-6.6-26.3-21.9-26.3-39.3v-8c6.5-0.9,11.7-6.1,12.6-12.6   h27.5c0.9,6.5,6.1,11.7,12.6,12.6V27.6z"/></g></svg>