<?xml version="1.0" ?><svg id="Layer_1" style="enable-background:new 0 0 74 74;" version="1.1" viewBox="0 0 74 74" xml:space="preserve" xmlns="http://www.w3.org/2000/svg" xmlns:xlink="http://www.w3.org/1999/xlink"><style type="text/css">
	.st0{fill:#2B3033;}
</style><g><path class="st0" d="M13.1,10.3h-0.6c-1.1,0-2,0.9-2,2s0.9,2,2,2h0.6c1.1,0,2-0.9,2-2S14.2,10.3,13.1,10.3z"/><path class="st0" d="M22,10.3h-0.6c-1.1,0-2,0.9-2,2s0.9,2,2,2H22c1.1,0,2-0.9,2-2S23.1,10.3,22,10.3z"/><path class="st0" d="M30.9,10.3h-0.6c-1.1,0-2,0.9-2,2s0.9,2,2,2h0.6c1.1,0,2-0.9,2-2S32,10.3,30.9,10.3z"/><path class="st0" d="M64.8,1H9.2C4.7,1,1,4.7,1,9.2v55.7C1,69.3,4.7,73,9.2,73h55.7c4.5,0,8.2-3.7,8.2-8.2V9.2   C73,4.7,69.3,1,64.8,1z M69,64.8c0,2.3-1.9,4.2-4.2,4.2H9.2C6.9,69,5,67.1,5,64.8V23.5h55.1c1.1,0,2-0.9,2-2s-0.9-2-2-2H5V9.2   C5,6.9,6.9,5,9.2,5h55.7C67.1,5,69,6.9,69,9.2V64.8z"/><path class="st0" d="M44,38.6h-1.1c-0.4,0-0.7,0.2-0.8,0.6l-1.9,6.5l-1.6-6.5c-0.1-0.4-0.4-0.6-0.8-0.6h-1.5   c-0.4,0-0.7,0.3-0.8,0.6l-1.7,6.5l-1.9-6.5c-0.1-0.4-0.4-0.6-0.8-0.6h-1c-0.6,0-1,0.6-0.8,1.1l2.9,9.2c0.1,0.4,0.4,0.6,0.8,0.6h1.5   c0.4,0,0.7-0.3,0.8-0.6l1.7-6.4l1.7,6.4c0.1,0.4,0.4,0.6,0.8,0.6H41c0.4,0,0.7-0.2,0.8-0.6l2.9-9.2C44.9,39.1,44.5,38.6,44,38.6z"/><path class="st0" d="M60.3,38.6h-1.1c-0.4,0-0.7,0.2-0.8,0.6l-1.9,6.5l-1.7-6.5c-0.1-0.4-0.4-0.6-0.8-0.6h-1.5   c-0.4,0-0.7,0.3-0.8,0.6L50,45.7l-1.9-6.5c-0.1-0.4-0.4-0.6-0.8-0.6h-1c-0.6,0-1,0.6-0.8,1.1l2.9,9.2c0.1,0.4,0.4,0.6,0.8,0.6h1.5   c0.4,0,0.7-0.3,0.8-0.6l1.7-6.4l1.7,6.4c0.1,0.4,0.4,0.6,0.8,0.6h1.5c0.4,0,0.7-0.2,0.8-0.6l3-9.2C61.2,39.1,60.8,38.6,60.3,38.6z"/><path class="st0" d="M27.6,38.6h-1.1c-0.4,0-0.7,0.2-0.8,0.6l-1.9,6.5l-1.7-6.5c-0.1-0.4-0.4-0.6-0.8-0.6h-1.5   c-0.4,0-0.7,0.3-0.8,0.6l-1.7,6.5l-1.9-6.5c-0.1-0.4-0.4-0.6-0.8-0.6h-1c-0.6,0-1,0.6-0.8,1.1l2.9,9.2c0.1,0.4,0.4,0.6,0.8,0.6h1.5   c0.4,0,0.7-0.3,0.8-0.6l1.7-6.4l1.7,6.4c0.1,0.4,0.4,0.6,0.8,0.6h1.5c0.4,0,0.7-0.2,0.8-0.6l3-9.2C28.6,39.1,28.2,38.6,27.6,38.6z"/></g></svg>