<?xml version="1.0" ?><!DOCTYPE svg  PUBLIC '-//W3C//DTD SVG 1.1//EN'  'http://www.w3.org/Graphics/SVG/1.1/DTD/svg11.dtd'><svg enable-background="new 0 0 48 48" height="48px" id="Layer_1" version="1.1" viewBox="0 0 48 48" width="48px" xml:space="preserve" xmlns="http://www.w3.org/2000/svg" xmlns:xlink="http://www.w3.org/1999/xlink"><g><path d="M24,0C10.746,0,0,10.744,0,24c0,13.254,10.746,24,24,24c13.256,0,24-10.746,24-24C48,10.744,37.256,0,24,0z    M24.159,44.104c-11.095,0-20.089-8.994-20.089-20.09c0-11.094,8.994-20.088,20.089-20.088s20.089,8.995,20.089,20.088   C44.248,35.109,35.254,44.104,24.159,44.104z" fill="#231F20"/><path d="M31.938,16.383h-3.361v-2.618c0-1.311-0.955-2.373-2.133-2.373h-4.885c-1.178,0-2.133,1.063-2.133,2.373   v2.618h-2.087h-1.276c-1.201,0-2.174,0.974-2.174,2.175v15.876c0,1.201,0.973,2.174,2.174,2.174h15.875   c1.203,0,2.176-0.973,2.176-2.174V18.558C34.113,17.356,33.141,16.383,31.938,16.383z M21.357,14.928   c0-0.758,0.552-1.371,1.231-1.371h2.823c0.68,0,1.23,0.613,1.23,1.371v1.455h-5.285V14.928z M30.65,31.889   c0,0.793-0.643,1.434-1.436,1.434H18.744c-0.793,0-1.436-0.641-1.436-1.434V21.416c0-0.793,0.643-1.436,1.436-1.436h10.471   c0.793,0,1.436,0.643,1.436,1.436V31.889z" fill="#231F20"/><path d="M24,23.375c-1.121,0-2.031,0.908-2.031,2.031c0,0.486,0.188,0.916,0.473,1.264l-0.021,0.004   c0,0,0.529,0.514,0.529,1.248v1.662c0,0.574,0.466,1.041,1.041,1.041s1.041-0.467,1.041-1.041v-1.703   c0.008-0.162,0.066-0.543,0.402-1.043c0.008-0.014,0.006-0.021,0.014-0.035c0.354-0.363,0.584-0.848,0.584-1.396   C26.031,24.283,25.123,23.375,24,23.375z" fill="#231F20"/></g></svg>